<svg width="20" height="21" viewBox="0 0 20 21" fill="none" xmlns="http://www.w3.org/2000/svg"><path d="M17.6666 11.3L17.1416 10.9833C17.1666 10.7583 17.1749 10.5333 17.1749 10.3C17.1749 10.0667 17.1582 9.84165 17.1416 9.61665L17.6666 9.29999C18.4582 8.82499 18.7082 7.79999 18.2332 7.00832L16.7416 4.54165C16.4249 4.02499 15.8749 3.73332 15.3166 3.73332C15.0249 3.73332 14.7249 3.80832 14.4582 3.97499L13.9332 4.29165C13.6749 4.11665 13.3916 3.96665 13.1082 3.83332V3.21665C13.1082 2.29999 12.3582 1.54999 11.4416 1.54999H8.55824C7.64158 1.54999 6.89158 2.29999 6.89158 3.21665V3.82499C6.59991 3.96665 6.32491 4.11665 6.05824 4.29165L5.54158 3.97499C5.27491 3.80832 4.97491 3.73332 4.68324 3.73332C4.11658 3.73332 3.56658 4.01665 3.25824 4.54165L1.76658 7.00832C1.29158 7.79999 1.54158 8.82499 2.33324 9.29999L2.84158 9.60832C2.81658 9.83332 2.79991 10.0667 2.79991 10.3C2.79991 10.5333 2.81658 10.7667 2.83325 10.9917L2.33324 11.3C1.54158 11.775 1.29158 12.8 1.76658 13.5917L3.25824 16.0583C3.57491 16.575 4.12491 16.8667 4.68324 16.8667C4.97491 16.8667 5.27491 16.7917 5.54158 16.625L6.05824 16.3167C6.32491 16.4917 6.59991 16.6417 6.89158 16.7833V17.3917C6.89158 18.3083 7.64158 19.0583 8.55824 19.0583H11.4416C12.3582 19.0583 13.1082 18.3083 13.1082 17.3917V16.775C13.3916 16.6417 13.6666 16.4833 13.9332 16.3167L14.4582 16.6333C14.7249 16.8 15.0249 16.875 15.3166 16.875C15.8832 16.875 16.4332 16.5917 16.7416 16.0667L18.2332 13.6C18.7082 12.8 18.4582 11.775 17.6666 11.3ZM17.1666 12.9417L15.6749 15.4083C15.5999 15.5333 15.4666 15.6083 15.3166 15.6083C15.2416 15.6083 15.1666 15.5917 15.0999 15.55L14.5749 15.2333C14.3749 15.1167 14.1499 15.05 13.9249 15.05C13.6832 15.05 13.4499 15.1167 13.2416 15.2583C13.0416 15.3917 12.8166 15.5167 12.5582 15.6417C12.1249 15.85 11.8499 16.2917 11.8499 16.7667V17.3833C11.8499 17.6167 11.6666 17.8 11.4332 17.8H8.54991C8.31658 17.8 8.13324 17.6167 8.13324 17.3833V16.775C8.13324 16.2917 7.85824 15.8583 7.42491 15.65C7.16658 15.525 6.94158 15.4 6.74158 15.2667C6.53325 15.1333 6.29158 15.0583 6.05824 15.0583C5.83324 15.0583 5.60824 15.1167 5.40824 15.2417L4.89991 15.55C4.83325 15.5917 4.75824 15.6083 4.68324 15.6083C4.53324 15.6083 4.39991 15.5333 4.32491 15.4083L2.83325 12.9417C2.71658 12.7417 2.77491 12.4917 2.97491 12.3667L3.48324 12.0583C3.89158 11.8083 4.12491 11.35 4.08324 10.8667C4.05824 10.6667 4.04991 10.4833 4.04991 10.3C4.04991 10.1167 4.05824 9.93332 4.08324 9.72499C4.13324 9.24999 3.89991 8.78332 3.48324 8.53332L2.97491 8.22499C2.84991 8.14999 2.79991 8.03332 2.78324 7.97499C2.77491 7.90832 2.75824 7.78332 2.83325 7.65832L4.32491 5.19165C4.39991 5.06665 4.53324 4.99165 4.68324 4.99165C4.75824 4.99165 4.83325 5.00832 4.89991 5.04999L5.41658 5.35832C5.60824 5.47499 5.83324 5.53332 6.05824 5.53332C6.29991 5.53332 6.53325 5.46665 6.74158 5.32499C6.94158 5.19165 7.16658 5.06665 7.42491 4.94165C7.86658 4.74165 8.14158 4.29999 8.14158 3.82499V3.21665C8.14158 2.98332 8.32491 2.79999 8.55824 2.79999H11.4416C11.6749 2.79999 11.8582 2.98332 11.8582 3.21665V3.83332C11.8582 4.31665 12.1332 4.74999 12.5666 4.95832C12.8249 5.08332 13.0499 5.20832 13.2416 5.34165C13.4499 5.47499 13.6916 5.54999 13.9249 5.54999C14.1499 5.54999 14.3749 5.49165 14.5749 5.36665L15.0999 5.04999C15.1666 5.00832 15.2416 4.99165 15.3166 4.99165C15.4666 4.99165 15.5999 5.06665 15.6749 5.19165L17.1666 7.65832C17.2416 7.78332 17.2332 7.90832 17.2166 7.97499C17.1999 8.04165 17.1582 8.14999 17.0249 8.23332L16.4999 8.54999C16.0916 8.79999 15.8582 9.25832 15.8999 9.73332C15.9166 9.94165 15.9249 10.125 15.9249 10.3C15.9249 10.475 15.9166 10.6583 15.8999 10.8667C15.8582 11.3417 16.0832 11.8083 16.4999 12.05L17.0249 12.3667C17.2249 12.4917 17.2832 12.75 17.1666 12.9417Z" fill="#647280"/><path d="M9.99991 6.54999C7.92491 6.54999 6.24991 8.22499 6.24991 10.3C6.24991 12.375 7.92491 14.05 9.99991 14.05C12.0749 14.05 13.7499 12.375 13.7499 10.3C13.7499 8.22499 12.0749 6.54999 9.99991 6.54999ZM9.99991 12.8C8.62491 12.8 7.49991 11.675 7.49991 10.3C7.49991 8.92499 8.62491 7.79999 9.99991 7.79999C11.3749 7.79999 12.4999 8.92499 12.4999 10.3C12.4999 11.675 11.3749 12.8 9.99991 12.8Z" fill="#647280"/></svg>